<?xml version="1.0" encoding="UTF-8"?>
<svg xmlns="http://www.w3.org/2000/svg" version="1.1" viewBox="0 0 432 144">
  <defs>
    <style>
      .cls-1 {
        fill: #fff;
      }
    </style>
  </defs>
  <!-- Generator: Adobe Illustrator 28.7.4, SVG Export Plug-In . SVG Version: 1.2.0 Build 166)  -->
  <g>
    <g id="Layer_1">
      <rect class="cls-1" x="225.1" y="22.5" width="2" height="106.6"/>
      <g>
        <path class="cls-1" d="M249.4,44.3c0-6.3,3.5-10.3,9.1-10.3s6.8,1.5,8.1,6.4l-4,1.1c-.8-2.8-2.1-3.9-4.1-3.9s-4.6.9-4.6,6.6,2.7,7,4.8,7,3.7-1.4,4.1-3.6h-3.5v-3.3h7.7v10h-3.5v-2.8h0c-.4,1.2-2.2,3.1-5.2,3.1-6,0-8.7-4.4-8.7-10.4Z"/>
        <path class="cls-1" d="M269.1,47.2c0-5.6,4.3-7.5,7.2-7.5s6.6,1.5,6.6,8v.6h-9.5c.2,2.4,1.5,3.3,3.3,3.3s3.3-.8,4.3-1.7l1.7,2.6c-1.7,1.4-3.8,2.2-6.3,2.2-3.8,0-7.3-1.9-7.3-7.5ZM279.1,45.8c-.2-2-1.1-3-2.8-3s-2.5.9-2.8,3h5.6Z"/>
        <path class="cls-1" d="M284.2,47.2c0-5.6,3.9-7.5,7.4-7.5s7.3,1.9,7.3,7.5-3.9,7.5-7.3,7.5-7.4-1.9-7.4-7.5ZM294.6,47.2c0-2.4-.8-4.3-3-4.3s-3,1.8-3,4.3.8,4.4,3,4.4,3-1.8,3-4.4Z"/>
        <path class="cls-1" d="M299.7,52.4l1.7-2.4c1.3,1.1,3.2,1.9,5,1.9s2.3-.5,2.3-1.4-.8-1.4-2.7-1.7c-2.7-.5-5.6-1.1-5.6-4.5s2.4-4.6,5.6-4.6,4.7.8,6.3,2l-1.7,2.5c-1.5-1-2.9-1.6-4.2-1.6s-1.9.5-1.9,1.3.8,1.2,2.6,1.5c2.8.5,5.8,1.1,5.8,4.4s-3,4.9-6.3,4.9-5.3-1-6.7-2.2Z"/>
        <path class="cls-1" d="M314.6,40h4.3v2.2c.9-1.3,2.3-2.5,4.4-2.5,3.3,0,5.5,2.5,5.5,7.5s-2.3,7.4-5.6,7.4-3.3-.7-4.4-1.9v7.1h-4.3v-19.8ZM324.6,47.2c0-2.4-.8-3.9-2.8-3.9s-2.1.7-2.8,1.4v5.3c.9.9,1.7,1.3,2.9,1.3,1.8,0,2.7-1.5,2.7-4.1Z"/>
        <path class="cls-1" d="M329.9,50.7c0-3.3,2.8-5.2,9.1-5.7v-.4c0-1.1-.5-1.7-1.9-1.7s-3.4.8-4.7,1.8l-1.8-2.5c1.4-1.3,3.6-2.6,7.2-2.6s5.6,1.9,5.6,5.6v5.5c0,1.7.1,2.8.4,3.5h-4.3c-.2-.6-.3-1.3-.3-2.1-1.3,1.5-2.9,2.3-5,2.3s-4.1-1.4-4.1-3.9ZM339.1,50v-2.7c-3.4.4-4.9,1.2-4.9,2.5s.6,1.4,1.6,1.4c1.5,0,2.6-.5,3.3-1.2Z"/>
        <path class="cls-1" d="M346.9,50.3v-7.2h-2.4v-3.2h2.4v-4.9h4.3v4.9h3.7v3.2h-3.7v6.2c0,1.5.4,2,2,2s1.1,0,1.4-.2v3.1c-.3,0-1.9.2-2.9.2-4.3,0-4.9-1.5-4.9-4.2Z"/>
        <path class="cls-1" d="M356.7,34.5h4.4v3.5h-4.4v-3.5ZM356.7,40h4.3v14.4h-4.3v-14.4Z"/>
        <path class="cls-1" d="M362.9,50.7c0-3.3,2.8-5.2,9.1-5.7v-.4c0-1.1-.5-1.7-1.9-1.7s-3.4.8-4.7,1.8l-1.8-2.5c1.4-1.3,3.6-2.6,7.2-2.6s5.6,1.9,5.6,5.6v5.5c0,1.7.1,2.8.4,3.5h-4.3c-.2-.6-.3-1.3-.3-2.1-1.3,1.5-2.9,2.3-5,2.3s-4.1-1.4-4.1-3.9ZM372,50v-2.7c-3.4.4-4.9,1.2-4.9,2.5s.6,1.4,1.6,1.4c1.5,0,2.6-.5,3.3-1.2Z"/>
        <path class="cls-1" d="M378.9,34.4h4.3v20h-4.3v-20Z"/>
        <path class="cls-1" d="M250.5,65.9h4.4v20h-4.4v-20Z"/>
        <path class="cls-1" d="M258.1,71.5h4.3v2.3c.9-1.1,2.5-2.6,5-2.6s4.2,1.2,4.2,4.2v10.5h-4.3v-9.1c0-1.3-.5-2-1.7-2s-2.2.6-3.1,1.4v9.7h-4.3v-14.4Z"/>
        <path class="cls-1" d="M275.3,74.6h-2.4v-3.2h2.4v-1c0-2.4.7-4.7,5-4.7s2.4.1,2.6.2v3c-.2,0-.8-.1-1.3-.1-1.1,0-2,.2-2,1.7v.9h3.1v3.2h-3.1v11.2h-4.3v-11.2Z"/>
        <path class="cls-1" d="M283.5,78.7c0-5.6,3.9-7.5,7.4-7.5s7.3,1.9,7.3,7.5-3.9,7.5-7.3,7.5-7.4-1.9-7.4-7.5ZM293.9,78.7c0-2.4-.8-4.3-3-4.3s-3,1.8-3,4.3.8,4.4,3,4.4,3-1.8,3-4.4Z"/>
        <path class="cls-1" d="M300.2,71.5h4.3v2.4h0c.8-1.2,2.2-2.7,4.9-2.7h.1v3.9c-.2,0-.9,0-1.2,0-1.7,0-3,.9-3.8,2v8.9h-4.3v-14.4Z"/>
        <path class="cls-1" d="M310.9,71.5h4.3v2.3c.9-1.1,2.5-2.6,4.7-2.6s3.5,1,3.9,2.6c.9-1.1,2.5-2.6,4.8-2.6s4.2,1.8,4.2,4.4v10.3h-4.3v-9.1c0-1.3-.3-2-1.6-2s-1.9.6-2.9,1.4v9.7h-4.3v-9.1c0-1.3-.3-2-1.6-2s-1.9.6-2.9,1.4v9.7h-4.3v-14.4Z"/>
        <path class="cls-1" d="M334.6,82.2c0-3.3,2.8-5.2,9.1-5.7v-.4c0-1.1-.5-1.7-1.9-1.7s-3.4.8-4.7,1.8l-1.8-2.5c1.4-1.3,3.6-2.6,7.2-2.6s5.6,1.9,5.6,5.6v5.5c0,1.7.1,2.8.4,3.5h-4.3c-.2-.6-.3-1.3-.3-2.1-1.3,1.5-2.9,2.3-5,2.3s-4.1-1.4-4.1-3.9ZM343.7,81.5v-2.7c-3.4.4-4.9,1.2-4.9,2.5s.6,1.4,1.6,1.4c1.5,0,2.6-.5,3.3-1.2Z"/>
        <path class="cls-1" d="M351.6,81.8v-7.2h-2.4v-3.2h2.4v-4.9h4.3v4.9h3.7v3.2h-3.7v6.2c0,1.5.4,2,2,2s1.1,0,1.4-.2v3.1c-.3,0-1.9.2-2.9.2-4.3,0-4.9-1.5-4.9-4.2Z"/>
        <path class="cls-1" d="M361.4,66h4.4v3.5h-4.4v-3.5ZM361.4,71.5h4.3v14.4h-4.3v-14.4Z"/>
        <path class="cls-1" d="M367.7,78.7c0-5.6,3.9-7.5,7.4-7.5s7.3,1.9,7.3,7.5-3.9,7.5-7.3,7.5-7.4-1.9-7.4-7.5ZM378.1,78.7c0-2.4-.8-4.3-3-4.3s-3,1.8-3,4.3.8,4.4,3,4.4,3-1.8,3-4.4Z"/>
        <path class="cls-1" d="M384.4,71.5h4.3v2.3c.9-1.1,2.5-2.6,5-2.6s4.2,1.2,4.2,4.2v10.5h-4.3v-9.1c0-1.3-.5-2-1.7-2s-2.2.6-3.1,1.4v9.7h-4.3v-14.4Z"/>
        <path class="cls-1" d="M250.3,97.4h4.4l8.4,12.7h0v-12.7h4v20h-4l-8.7-12.8h0v12.8h-4v-20Z"/>
        <path class="cls-1" d="M269.6,110.2c0-5.6,4.3-7.5,7.2-7.5s6.6,1.5,6.6,8v.6h-9.5c.2,2.4,1.5,3.3,3.3,3.3s3.3-.8,4.3-1.7l1.7,2.6c-1.7,1.4-3.8,2.2-6.3,2.2-3.8,0-7.3-1.9-7.3-7.5ZM279.5,108.8c-.2-2-1.1-3-2.8-3s-2.5.9-2.8,3h5.6Z"/>
        <path class="cls-1" d="M286.5,113.3v-7.2h-2.4v-3.2h2.4v-4.9h4.3v4.9h3.7v3.2h-3.7v6.2c0,1.5.4,2,2,2s1.1,0,1.4-.2v3.1c-.3,0-1.9.2-2.9.2-4.3,0-4.9-1.5-4.9-4.2Z"/>
        <path class="cls-1" d="M295.2,103h4.4l1.2,5.2c.4,1.5.6,2.5.9,4.4h0c.4-1.9.6-2.9,1-4.5l1.2-5h3.4l1.3,5.1c.4,1.5.6,2.6,1,4.4h0c.4-1.8.6-2.9,1-4.4l1.3-5.2h3.9l-4.2,14.4h-4l-2.2-8.8h0l-2.2,8.8h-4l-4.2-14.4Z"/>
        <path class="cls-1" d="M316.1,110.2c0-5.6,3.9-7.5,7.4-7.5s7.3,1.9,7.3,7.5-3.9,7.5-7.3,7.5-7.4-1.9-7.4-7.5ZM326.4,110.2c0-2.4-.8-4.3-3-4.3s-3,1.8-3,4.3.8,4.4,3,4.4,3-1.8,3-4.4Z"/>
        <path class="cls-1" d="M332.7,103h4.3v2.4h0c.8-1.2,2.2-2.7,4.9-2.7h.1v3.9c-.2,0-.9,0-1.2,0-1.7,0-3,.9-3.8,2v8.9h-4.3v-14.4Z"/>
        <path class="cls-1" d="M343.5,97.4h4.3v11l4.5-5.4h4.7l-4.7,5.4,5,9h-4.5l-3.2-5.9-1.8,2v3.9h-4.3v-20Z"/>
      </g>
      <g>
        <path class="cls-1" d="M34.6,107.3l-3.8,10.8h0c0,0,1.3,0,1.3,0l1.1-3.1h4.2l1,3h0s1.4,0,1.4,0l-3.8-10.9h-1.4ZM36.9,113.9h-3.4l1.7-4.9,1.7,4.9ZM48.9,114.6l1.2.3h0c-.6,2.3-2,3.6-4.2,3.6s-2.5-.5-3.3-1.5c-.8-1-1.3-2.4-1.3-4.2,0-3.3,1.8-5.6,4.6-5.6s3.5,1.1,4,3.3h0s-1.3.4-1.3.4h0c-.5-1.8-1.3-2.5-2.7-2.5s-3.2,1.6-3.2,4.3,1.2,4.4,3.2,4.4,2.4-.8,2.9-2.6h0s0,0,0,0ZM55.7,107.3l-3.8,10.8h0c0,0,1.3,0,1.3,0l1.1-3.1h4.2l1,3h0s1.4,0,1.4,0l-3.8-10.9h-1.4ZM58.1,113.9h-3.4l1.7-4.9,1.7,4.9ZM66.5,107.4h-2.9v10.8h2.9c3.6,0,5.5-1.9,5.5-5.4s-1.9-5.4-5.5-5.4ZM70.6,112.8c0,2.9-1.2,4.2-3.9,4.2h-1.7v-8.3h1.6c2.7,0,4,1.3,4,4.1ZM76.6,117h5.6v1.2h-7v-10.8h6.7v1.3h-5.3v3.3h3.9v1.2h-3.9v3.8ZM93.8,107.4h1.8v10.8h-1.3v-8.5c-.1.4-.3.8-.4,1.3,0,.2-.1.3-.2.5l-2.6,6.7h-1.2s-2.6-6.9-2.6-6.9c-.2-.6-.4-1-.5-1.6v8.6h-1.3v-10.8h1.7l3.4,9.1,3.3-9.1ZM100,107.4h1.4v10.8h-1.4v-10.8ZM112.1,114.6l1.2.3h0c-.6,2.3-2,3.6-4.2,3.6s-2.5-.5-3.3-1.5c-.8-1-1.3-2.4-1.3-4.2,0-3.3,1.8-5.6,4.6-5.6s3.5,1.1,4,3.3h0s-1.3.4-1.3.4h0c-.5-1.8-1.3-2.5-2.7-2.5s-3.2,1.6-3.2,4.3,1.2,4.4,3.2,4.4,2.4-.8,2.9-2.6h0s0,0,0,0ZM123.9,107.3l-3.8,10.8h0c0,0,1.3,0,1.3,0l1.1-3.1h4.2l1.1,3.1h1.4l-3.8-10.9h-1.4ZM126.2,113.9h-3.4l1.7-4.9,1.7,4.9ZM133.5,117h5.2v1.2h-6.5v-10.8h1.4v9.6ZM142.5,117h5.2v1.2h-6.5v-10.8h1.4v9.6ZM150,107.4h1.4v10.8h-1.4v-10.8ZM158.3,107.3l-3.8,10.8h0c0,0,1.3,0,1.3,0l1.1-3.1h4.2l1.1,3.1h1.4l-3.8-10.9h-1.4ZM160.7,113.9h-3.4l1.7-4.9,1.7,4.9ZM173.6,107.4h1.3v10.8h-1.2s-5.8-8.7-5.8-8.7v8.7h-1.3v-10.8h1.4s5.6,8.4,5.6,8.4v-8.4ZM185.5,114.6l1.3.3h0c-.6,2.3-2,3.6-4.2,3.6s-2.5-.5-3.3-1.5c-.8-1-1.3-2.4-1.3-4.2,0-3.3,1.8-5.6,4.6-5.6s3.5,1.1,4,3.3h0s-1.3.4-1.3.4h0c-.5-1.8-1.3-2.5-2.7-2.5s-3.2,1.6-3.2,4.3,1.2,4.4,3.2,4.4,2.4-.8,2.9-2.6h0ZM196.7,117v1.2h-7v-10.8h6.7v1.3h-5.3v3.3h3.9v1.2h-3.9v3.8h5.6Z"/>
        <path class="cls-1" d="M75.3,36.1h1.7c7.5,0,13.6,6.2,13.6,13.7s-3.3,10.4-8.3,12.6l-1.4.6s-1.1.4-1.1,1.5,1.1,1.8,1.1,1.8l1.7.5c6,1.7,10.3,7.3,10.3,13.6s-6.3,14.1-14.1,14.1h-44.9v-11.4h7.4v-35.5h-7.4v-11.4h41.5M77.1,33.9H31.5v15.9h7.4v30.9h-7.4v15.9h47.2c9,0,16.4-7.3,16.4-16.4s-5-13.8-11.9-15.7h0c5.7-2.5,9.7-8.2,9.7-14.8s-7.1-15.9-15.8-15.9h0Z"/>
        <path class="cls-1" d="M70.8,60h-12.6v-11.4h12.6c1.2,0,2.2,1,2.2,2.2v7c0,1.2-1,2.2-2.2,2.2ZM60.5,57.7h10.2v-6.8h-10.2v6.8Z"/>
        <path class="cls-1" d="M71.3,81.9h-13.2v-12.8h13.2c1.2,0,2.2,1,2.2,2.2v8.4c0,1.2-1,2.2-2.2,2.2ZM60.5,79.6h10.8v-8.2h-10.8v8.2Z"/>
        <path class="cls-1" d="M124.7,33.9v46.9h7.4v15.9h-35.2v-15.9h7.4v-30.9h-7.4v-15.9h27.8ZM196.4,55.3v-5.5c0-8.8-7.1-15.9-15.9-15.9h-30.6c-8.8,0-15.9,7.1-15.9,15.9v31c0,8.8,7.1,15.9,15.9,15.9h30.6c8.8,0,15.9-7.1,15.9-15.9v-21.2h-25.8v11.4h5.4v7.7c0,1.2-.9,2.1-2.1,2.1h-17.3c-1.2,0-2.1-.9-2.1-2.1v-26.7c0-1.2.9-2.1,2.1-2.1h17.3c1.2,0,2.1.9,2.1,2.1v3.4h20.5ZM196,97.6c0,1.6,1.3,2.9,2.9,2.9s2.9-1.3,2.9-2.9-1.3-2.9-2.9-2.9-2.9,1.3-2.9,2.9M201.3,97.6c0,1.4-1,2.5-2.4,2.5s-2.4-1.1-2.4-2.5,1-2.5,2.4-2.5,2.4,1.1,2.4,2.5M197.8,99.2h.6v-1.2h.5l.6,1.2h.6l-.7-1.3c.4-.1.6-.4.6-.9s-.4-1-1.2-1h-1.2v3.2ZM198.4,97.5v-1h.5c.4,0,.6.1.6.5s-.2.5-.6.5h-.5Z"/>
      </g>
    </g>
  </g>
</svg>